<?xml version="1.0" standalone="no"?>
<!DOCTYPE svg PUBLIC "-//W3C//DTD SVG 20010904//EN"
 "http://www.w3.org/TR/2001/REC-SVG-20010904/DTD/svg10.dtd">
<svg version="1.0" xmlns="http://www.w3.org/2000/svg"
 width="512.000000pt" height="512.000000pt" viewBox="0 0 512.000000 512.000000"
 preserveAspectRatio="xMidYMid meet">

<g transform="translate(0.000000,512.000000) scale(0.100000,-0.100000)"
fill="#000000" stroke="none">
<path d="M116 5012 c-3 -5 -10 -46 -15 -93 -82 -677 12 -1532 232 -2109 110
-288 145 -343 278 -440 151 -110 275 -246 349 -382 31 -59 90 -196 90 -212 0
-2 -15 -7 -34 -10 -65 -12 -173 -75 -220 -127 -26 -28 -46 -55 -46 -60 0 -4
19 -2 41 6 81 29 225 16 278 -24 23 -18 23 -18 -43 -25 -76 -8 -181 -38 -247
-71 -55 -28 -144 -98 -158 -124 -9 -17 -5 -16 57 6 91 34 249 43 342 19 65
-17 188 -70 225 -99 17 -13 10 -14 -71 -10 -97 6 -157 -3 -250 -38 l-59 -22
75 -19 c142 -35 238 -91 403 -237 184 -162 380 -283 593 -365 l89 -34 20 -59
c84 -240 276 -383 515 -383 233 0 444 153 516 374 9 28 21 56 28 62 6 6 45 23
86 39 214 80 407 198 575 353 154 142 256 205 396 245 l81 24 -54 21 c-83 34
-155 45 -251 39 l-88 -5 37 25 c58 40 154 80 222 93 94 19 252 8 334 -22 61
-23 66 -24 57 -7 -16 32 -110 100 -178 131 -76 35 -199 68 -253 68 -21 0 -38
4 -38 9 0 5 24 19 53 32 42 19 68 24 137 23 54 -1 99 -7 123 -17 20 -9 37 -12
37 -7 0 5 -26 36 -57 68 -59 60 -138 105 -210 120 -46 10 -46 21 -2 129 73
174 169 292 365 450 81 65 156 129 166 144 29 38 134 296 188 460 144 435 212
897 214 1454 0 283 -16 560 -35 598 -13 23 -47 22 -193 -8 -508 -102 -973
-333 -1346 -667 -311 -278 -516 -642 -587 -1045 -9 -51 -21 -93 -26 -93 -17 0
-93 58 -134 103 -49 53 -101 152 -132 252 -13 39 -25 77 -28 85 -2 8 -13 -17
-23 -57 -25 -95 -77 -206 -127 -269 -35 -43 -149 -133 -157 -122 -1 1 -13 57
-25 123 -67 350 -229 656 -497 935 -347 361 -927 665 -1448 760 -119 22 -162
25 -170 12z m326 -208 c638 -181 1165 -558 1393 -995 135 -261 182 -581 112
-778 -41 -116 -95 -160 -169 -141 -47 13 -69 26 -150 87 -56 43 -155 149 -146
158 2 3 44 -13 93 -35 49 -21 91 -38 92 -36 5 5 -47 173 -76 244 -16 40 -27
72 -25 72 3 0 40 -18 84 -40 44 -22 80 -35 80 -30 0 25 -104 241 -161 335
-253 421 -648 784 -1094 1007 -107 54 -112 55 -108 16 20 -166 72 -434 118
-603 13 -49 53 -205 89 -345 59 -232 118 -435 145 -500 8 -19 9 -6 5 55 -3 44
-7 96 -10 115 -8 48 -3 40 48 -80 52 -124 106 -218 186 -327 62 -83 218 -247
312 -327 l55 -47 -25 -19 c-41 -32 -131 -62 -192 -63 -32 -1 -58 -3 -58 -3 0
-1 20 -40 45 -87 53 -99 95 -250 95 -341 l0 -61 -29 50 c-44 77 -190 216 -356
340 -220 165 -206 149 -274 329 -202 538 -313 1263 -282 1849 7 119 14 224 17
232 7 17 28 14 186 -31z m4431 -14 c15 -139 19 -455 8 -628 -30 -482 -112
-910 -249 -1312 -58 -170 -89 -241 -120 -273 -15 -17 -97 -82 -182 -146 -193
-145 -290 -235 -352 -330 l-48 -74 0 39 c0 116 48 284 110 387 22 36 40 68 40
70 0 2 -33 7 -72 9 -53 4 -88 13 -128 33 -87 44 -87 40 -6 110 232 202 396
424 503 680 l33 80 -5 -110 -5 -110 40 118 c22 65 85 292 140 505 131 513 200
862 170 862 -20 0 -215 -102 -325 -170 -372 -231 -691 -552 -885 -891 -62
-107 -156 -316 -147 -325 3 -3 37 11 77 31 40 20 74 34 76 32 2 -2 -7 -33 -20
-68 -27 -73 -77 -249 -70 -249 3 0 30 13 62 29 31 16 74 36 95 44 36 16 37 16
26 -4 -20 -39 -134 -147 -198 -188 -136 -88 -194 -74 -256 61 -60 131 -66 261
-24 470 51 255 163 464 359 671 260 274 599 478 1040 627 74 25 265 75 301 79
3 1 9 -26 12 -59z m-3151 -2850 c213 -36 325 -87 434 -195 152 -150 192 -336
138 -637 -9 -49 -19 -88 -23 -88 -3 0 -15 14 -26 31 -27 40 -103 96 -157 114
-24 8 -90 21 -147 30 -116 17 -188 45 -267 105 -120 91 -228 309 -269 547 -8
47 -15 92 -15 99 0 22 194 18 332 -6z m2008 11 c0 -6 -9 -58 -20 -116 -40
-202 -115 -376 -207 -476 -97 -104 -190 -149 -354 -169 -124 -15 -195 -47
-259 -117 -27 -29 -51 -50 -53 -46 -18 32 -32 170 -32 308 1 144 3 166 24 220
89 225 287 352 616 398 63 9 285 7 285 -2z m-1060 -1232 c168 -38 259 -176
201 -304 -67 -149 -298 -213 -481 -134 -83 36 -160 135 -160 206 0 176 207
284 440 232z"/>
<path d="M1583 1724 c6 -132 25 -203 78 -286 95 -148 248 -190 342 -93 l33 34
61 -62 c33 -34 70 -75 81 -91 26 -34 26 -35 7 51 -35 167 -92 286 -181 383
-96 103 -218 164 -356 177 l-71 6 6 -119z"/>
<path d="M3386 1824 c-164 -40 -289 -143 -368 -304 -44 -88 -77 -190 -93 -285
l-7 -39 45 59 c25 33 61 75 80 93 l34 33 39 -39 c121 -122 326 -7 396 222 16
52 22 98 22 171 l1 100 -45 2 c-25 1 -72 -5 -104 -13z"/>
<path d="M2420 607 c-38 -19 -54 -60 -40 -103 28 -85 119 -142 204 -130 144
22 216 211 91 242 -13 3 -46 1 -72 -5 -34 -8 -58 -8 -83 -1 -46 13 -70 12
-100 -3z"/>
</g>
</svg>
